<svg xmlns="http://www.w3.org/2000/svg" width="2714.08" height="331.564" viewBox="0 0 2714.08 331.564">
  <g id="Path_1" data-name="Path 1" transform="matrix(1, -0.017, 0.017, 1, -0.427, 44.267)" fill="#442c69">
    <path d="M 1490.618774414063 286.8475646972656 C 1447.032104492188 286.8475646972656 1402.594116210938 286.6219177246094 1358.53955078125 286.1765747070313 C 1266.624145507813 285.2475891113281 1174.743530273438 283.3522338867188 1085.449829101563 280.5429077148438 C 998.4254760742188 277.8049011230469 912.8028564453125 274.1665649414063 830.9608154296875 269.7289123535156 C 750.6047973632813 265.37158203125 673.0784912109375 260.2005920410156 600.53515625 254.3589172363281 C 528.6821899414063 248.5725860595703 461.0901489257813 242.0785827636719 399.6361694335938 235.0569152832031 C 338.184814453125 228.0355834960938 282.3658142089844 220.4289093017578 233.7294921875 212.4485778808594 C 184.6331634521484 204.392578125 142.4281616210938 195.8845825195313 108.2874908447266 187.1612396240234 C 91.04216003417969 182.7549133300781 75.62282562255859 178.2302398681641 62.45782852172852 173.7129058837891 C 49.15349197387695 169.1479187011719 37.83449172973633 164.4819183349609 28.81516075134277 159.84423828125 C 19.70349311828613 155.1592407226563 12.72549343109131 150.3942413330078 8.076160430908203 145.6819152832031 C 5.74449348449707 143.3189086914063 3.95682692527771 140.9259185791016 2.761826753616333 138.5685729980469 C 1.568493485450745 136.2139129638672 0.9344934821128845 133.8302459716797 0.8784934878349304 131.4839172363281 C 0.8211601376533508 129.0965728759766 1.360160112380981 126.6839141845703 2.481160163879395 124.3132476806641 C 3.602826833724976 121.9402465820313 5.337493419647217 119.5429153442383 7.636826992034912 117.1879119873047 C 11.5878267288208 113.1409149169922 17.33749389648438 109.0809097290039 24.72582626342773 105.1212463378906 C 32.05182647705078 101.1949157714844 41.16549301147461 97.27257537841797 51.81349182128906 93.46391296386719 C 72.8594970703125 85.93557739257813 100.531494140625 78.61090850830078 134.0611572265625 71.69258117675781 C 167.1294860839844 64.86991119384766 206.3484954833984 58.34891128540039 250.6288299560547 52.31057739257813 C 294.5928344726563 46.31524658203125 344.1191711425781 40.71791076660156 397.8321533203125 35.67324447631836 C 451.5545043945313 30.6279125213623 510.1538391113281 26.07124519348145 572.0021362304688 22.12957954406738 C 634.31884765625 18.15824508666992 700.7575073242188 14.75891208648682 769.4724731445313 12.02657890319824 C 911.2785034179688 6.38757848739624 1062.7431640625 3.528245210647583 1219.659790039063 3.528245210647583 C 1263.246459960938 3.528245210647583 1307.684448242188 3.753911972045898 1351.739135742188 4.199245452880859 C 1443.654541015625 5.12824535369873 1535.53515625 7.023578643798828 1624.828857421875 9.832912445068359 C 1711.853149414063 12.57091236114502 1797.475830078125 16.2092456817627 1879.31787109375 20.64691162109375 C 1959.673828125 25.00424575805664 2037.2001953125 30.17524528503418 2109.743408203125 36.01691055297852 C 2181.596435546875 41.80324554443359 2249.1884765625 48.29724502563477 2310.642578125 55.31891250610352 C 2372.09375 62.34024429321289 2427.912841796875 69.94691467285156 2476.549072265625 77.92724609375 C 2525.645751953125 85.98324584960938 2567.8505859375 94.49124908447266 2601.9912109375 103.2145767211914 C 2619.236572265625 107.6209106445313 2634.65576171875 112.1455764770508 2647.821044921875 116.6629104614258 C 2661.125244140625 121.227912902832 2672.444091796875 125.893913269043 2681.46337890625 130.5315856933594 C 2690.575439453125 135.2165832519531 2697.55322265625 139.9815826416016 2702.202880859375 144.6939086914063 C 2704.5341796875 147.0569152832031 2706.322265625 149.4499053955078 2707.516845703125 151.8072509765625 C 2708.71044921875 154.1619110107422 2709.344482421875 156.5455780029297 2709.400390625 158.8919067382813 C 2709.457763671875 161.2792510986328 2708.9189453125 163.6919097900391 2707.7978515625 166.0625762939453 C 2706.67626953125 168.4355773925781 2704.94140625 170.8329162597656 2702.64208984375 173.1879119873047 C 2698.691162109375 177.2349090576172 2692.94140625 181.2949066162109 2685.55322265625 185.2545776367188 C 2678.22705078125 189.180908203125 2669.113525390625 193.1032409667969 2658.465087890625 196.9119110107422 C 2637.419189453125 204.4402465820313 2609.7470703125 211.7652435302734 2576.217529296875 218.6832427978516 C 2543.149169921875 225.5059051513672 2503.93017578125 232.0269165039063 2459.64990234375 238.0652465820313 C 2415.685791015625 244.0605773925781 2366.159423828125 249.6579132080078 2312.446533203125 254.7025756835938 C 2258.72412109375 259.7479248046875 2200.124755859375 264.3045654296875 2138.27685546875 268.2462463378906 C 2075.959716796875 272.2175903320313 2009.521118164063 275.6169128417969 1940.80615234375 278.3492431640625 C 1799.000122070313 283.9882507324219 1647.535522460938 286.8475646972656 1490.618774414063 286.8475646972656 Z" stroke="none"/>
    <path d="M 1219.659790039063 4.02825927734375 C 1062.749877929688 4.02825927734375 911.2918701171875 6.887237548828125 769.4925537109375 12.5262451171875 C 700.7811279296875 15.25857543945313 634.346435546875 18.6575927734375 572.033935546875 22.62857055664063 C 510.1904296875 26.56991577148438 451.59619140625 31.12625122070313 397.87890625 36.17124938964844 C 344.1728515625 41.21490478515625 294.653564453125 46.81158447265625 250.696044921875 52.805908203125 C 206.42724609375 58.84257507324219 167.21923828125 65.36190795898438 134.162109375 72.18257141113281 C 100.655517578125 79.09591674804688 73.005859375 86.41424560546875 51.98193359375 93.93458557128906 C 41.35693359375 97.73524475097656 32.26611328125 101.6472473144531 24.9619140625 105.5619049072266 C 17.618408203125 109.4975738525391 11.909912109375 113.5265808105469 7.994384765625 117.5372467041016 C 5.73388671875 119.8525848388672 4.03125 122.2042388916016 2.93310546875 124.5269165039063 C 1.845947265625 126.8265838623047 1.32275390625 129.1632385253906 1.378173828125 131.4719085693359 C 1.59912109375 140.6779174804688 10.9072265625 150.0739135742188 29.0439453125 159.3995819091797 C 38.041748046875 164.0262451171875 49.33837890625 168.6829223632813 62.6201171875 173.2399139404297 C 75.7724609375 177.7529144287109 91.1787109375 182.2735900878906 108.411376953125 186.6769104003906 C 142.537841796875 195.3965759277344 184.728271484375 203.9012451171875 233.810546875 211.9552459716797 C 282.438720703125 219.9342346191406 338.249755859375 227.5399169921875 399.693115234375 234.5602416992188 C 461.1416015625 241.5812377929688 528.727783203125 248.0745849609375 600.5751953125 253.8602447509766 C 673.1141357421875 259.7015686035156 750.6361083984375 264.8725891113281 830.98779296875 269.2295837402344 C 912.826171875 273.6669006347656 998.44482421875 277.3052368164063 1085.465454101563 280.0429077148438 C 1174.755859375 282.8522338867188 1266.6328125 284.7475891113281 1358.54443359375 285.6765747070313 C 1402.60888671875 286.1219177246094 1447.044799804688 286.3475646972656 1490.618774414063 286.3475646972656 C 1647.52880859375 286.3475646972656 1798.98681640625 283.4885864257813 1940.7861328125 277.8495788574219 C 2009.4970703125 275.1172485351563 2075.931884765625 271.7182312011719 2138.244873046875 267.7472534179688 C 2200.088134765625 263.805908203125 2258.68212890625 259.2495727539063 2312.3994140625 254.2045745849609 C 2366.10546875 249.1609191894531 2415.624755859375 243.5642395019531 2459.58203125 237.5699157714844 C 2503.8515625 231.5332489013672 2543.05908203125 225.013916015625 2576.116455078125 218.1932373046875 C 2609.623046875 211.2799072265625 2637.27294921875 203.9615783691406 2658.296875 196.4412536621094 C 2668.921875 192.6405792236328 2678.012451171875 188.7285766601563 2685.31689453125 184.8139038085938 C 2692.66015625 180.8782348632813 2698.368896484375 176.8492431640625 2702.284423828125 172.8385772705078 C 2704.544921875 170.5232543945313 2706.247802734375 168.1715698242188 2707.345947265625 165.8489074707031 C 2708.43310546875 163.5492553710938 2708.9560546875 161.2125854492188 2708.90087890625 158.9039154052734 C 2708.679931640625 149.6979064941406 2699.371826171875 140.3019104003906 2681.23486328125 130.9762420654297 C 2672.23681640625 126.3495788574219 2660.9404296875 121.6929168701172 2647.658935546875 117.1359100341797 C 2634.506103515625 112.6229095458984 2619.099853515625 108.1022491455078 2601.867431640625 103.6989135742188 C 2567.74072265625 94.979248046875 2525.550537109375 86.47457885742188 2476.46826171875 78.42057800292969 C 2427.83984375 70.44157409667969 2372.02880859375 62.83590698242188 2310.5859375 55.81558227539063 C 2249.137451171875 48.79458618164063 2181.55078125 42.30123901367188 2109.70361328125 36.51557922363281 C 2037.16455078125 30.67425537109375 1959.642578125 25.50323486328125 1879.290771484375 21.146240234375 C 1797.452514648438 16.70892333984375 1711.833740234375 13.07058715820313 1624.813110351563 10.33291625976563 C 1535.522827148438 7.523590087890625 1443.645874023438 5.62823486328125 1351.734130859375 4.699249267578125 C 1307.669799804688 4.25390625 1263.23388671875 4.02825927734375 1219.659790039063 4.02825927734375 M 1219.65966796875 3.028228759765625 C 1263.116821289063 3.028228759765625 1307.1728515625 3.248779296875 1351.744140625 3.699249267578125 C 2099.957763671875 11.26123046875 2708.025146484375 80.7379150390625 2709.900390625 158.8799133300781 C 2711.66357421875 232.3669738769531 2176.670654296875 287.3475952148438 1490.618896484375 287.3475952148438 C 1447.161865234375 287.3475952148438 1403.105834960938 287.1270141601563 1358.534545898438 286.6765747070313 C 610.32080078125 279.1145629882813 2.25341796875 209.6379089355469 0.37841796875 131.4959106445313 C -1.385009765625 58.00885009765625 533.607666015625 3.028228759765625 1219.65966796875 3.028228759765625 Z" stroke="none" fill="#707070"/>
  </g>
</svg>
